<?xml version="1.0" encoding="utf-8"?>
<!-- Generator: Adobe Illustrator 24.1.0, SVG Export Plug-In . SVG Version: 6.00 Build 0)  -->
<svg version="1.1" id="Layer_1" xmlns="http://www.w3.org/2000/svg" xmlns:xlink="http://www.w3.org/1999/xlink" x="0px" y="0px"
	 viewBox="0 0 27 27" style="enable-background:new 0 0 27 27;" xml:space="preserve">
<style type="text/css">
	.st0{fill:#9EC4D5;}
	.st1{fill:#29ABE2;}
	.st2{fill:#A07278;}
	.st3{opacity:0.75;fill:#FFFFFF;}
	.st4{fill:#62C491;}
	.st5{opacity:0.75;}
	.st6{fill:#FFFFFF;}
</style>
<g>
	<g>
		<path class="st0" d="M4.24-4.21c-2.06,0-3.74-1.68-3.74-3.74v-18.52c0-2.06,1.68-3.74,3.74-3.74h18.53c2.06,0,3.74,1.68,3.74,3.74
			v18.52c0,2.06-1.68,3.74-3.74,3.74H4.24z"/>
		<path class="st1" d="M22.76-29.71c1.79,0,3.24,1.45,3.24,3.24v18.53c0,1.79-1.45,3.24-3.24,3.24H4.24C2.45-4.71,1-6.16,1-7.95
			v-18.53c0-1.79,1.45-3.24,3.24-3.24H22.76 M22.76-30.71H4.24C1.9-30.71,0-28.81,0-26.47v18.53c0,2.34,1.9,4.24,4.24,4.24h18.53
			c2.34,0,4.24-1.9,4.24-4.24v-18.53C27-28.81,25.1-30.71,22.76-30.71L22.76-30.71z"/>
	</g>
</g>
<g>
	<g>
		<g>
			<path class="st2" d="M4.24-34.92c-2.06,0-3.74-1.68-3.74-3.74v-18.52c0-2.06,1.68-3.74,3.74-3.74h18.53
				c2.06,0,3.74,1.68,3.74,3.74v18.52c0,2.06-1.68,3.74-3.74,3.74H4.24z"/>
			<path class="st1" d="M22.76-60.42c1.79,0,3.24,1.45,3.24,3.24v18.53c0,1.79-1.45,3.24-3.24,3.24H4.24C2.45-35.42,1-36.87,1-38.65
				v-18.53c0-1.79,1.45-3.24,3.24-3.24H22.76 M22.76-61.42H4.24C1.9-61.42,0-59.52,0-57.18v18.53c0,2.34,1.9,4.24,4.24,4.24h18.53
				c2.34,0,4.24-1.9,4.24-4.24v-18.53C27-59.52,25.1-61.42,22.76-61.42L22.76-61.42z"/>
		</g>
	</g>
	<polygon class="st3" points="20.86,-53.11 18.74,-55.23 13.5,-49.99 8.26,-55.23 6.14,-53.11 11.38,-47.87 6.14,-42.63 
		8.26,-40.51 13.5,-45.75 18.74,-40.51 20.86,-42.63 15.62,-47.87 	"/>
</g>
<g>
	<g>
		<g>
			<path class="st4" d="M4.24,26.5c-2.06,0-3.74-1.68-3.74-3.74V4.24c0-2.06,1.68-3.74,3.74-3.74h18.53c2.06,0,3.74,1.68,3.74,3.74
				v18.52c0,2.06-1.68,3.74-3.74,3.74H4.24z"/>
			<path class="st1" d="M22.76,1C24.55,1,26,2.45,26,4.24v18.53c0,1.79-1.45,3.24-3.24,3.24H4.24C2.45,26,1,24.55,1,22.76V4.24
				C1,2.45,2.45,1,4.24,1H22.76 M22.76,0H4.24C1.9,0,0,1.9,0,4.24v18.53C0,25.1,1.9,27,4.24,27h18.53C25.1,27,27,25.1,27,22.76V4.24
				C27,1.9,25.1,0,22.76,0L22.76,0z"/>
		</g>
	</g>
	<polygon class="st3" points="22.41,12.05 15,12.05 15,4.64 12,4.64 12,12.05 4.59,12.05 4.59,15.05 12,15.05 12,22.46 15,22.46 
		15,15.05 22.41,15.05 	"/>
</g>
<g class="st5">
	<rect x="6.84" y="-19.7" transform="matrix(0.7071 -0.7071 0.7071 0.7071 17.0133 4.6723)" class="st6" width="14.62" height="3"/>
	<polygon class="st6" points="9.49,-11.43 7.37,-13.55 4.27,-8.9 4.85,-8.32 4.85,-8.32 4.85,-8.32 21.83,-8.32 21.83,-9.32 
		6.34,-9.32 	"/>
	<path class="st6" d="M21.86-25.09l-0.82-0.82c-0.36-0.36-0.94-0.36-1.3,0l-1.03,1.03l2.12,2.12l1.03-1.03
		C22.22-24.15,22.22-24.73,21.86-25.09z"/>
</g>
</svg>
