<?xml version="1.0" encoding="utf-8"?>
<!-- Generator: Adobe Illustrator 24.1.0, SVG Export Plug-In . SVG Version: 6.00 Build 0)  -->
<svg version="1.1" id="Layer_1" xmlns="http://www.w3.org/2000/svg" xmlns:xlink="http://www.w3.org/1999/xlink" x="0px" y="0px"
	 viewBox="0 0 27 27" style="enable-background:new 0 0 27 27;" xml:space="preserve">
<style type="text/css">
	.st0{fill:#9EC4D5;}
	.st1{fill:#29ABE2;}
	.st2{fill:#A07278;}
	.st3{opacity:0.75;fill:#FFFFFF;}
	.st4{fill:#62C491;}
	.st5{opacity:0.75;}
	.st6{fill:#FFFFFF;}
</style>
<g>
	<g>
		<path class="st0" d="M4.24,57.21c-2.06,0-3.74-1.68-3.74-3.74V34.95c0-2.06,1.68-3.74,3.74-3.74h18.53c2.06,0,3.74,1.68,3.74,3.74
			v18.52c0,2.06-1.68,3.74-3.74,3.74H4.24z"/>
		<path class="st1" d="M22.76,31.71c1.79,0,3.24,1.45,3.24,3.24v18.53c0,1.79-1.45,3.24-3.24,3.24H4.24C2.45,56.71,1,55.26,1,53.47
			V34.95c0-1.79,1.45-3.24,3.24-3.24H22.76 M22.76,30.71H4.24C1.9,30.71,0,32.61,0,34.95v18.53c0,2.34,1.9,4.24,4.24,4.24h18.53
			c2.34,0,4.24-1.9,4.24-4.24V34.95C27,32.61,25.1,30.71,22.76,30.71L22.76,30.71z"/>
	</g>
</g>
<g>
	<g>
		<g>
			<path class="st2" d="M4.24,26.5c-2.06,0-3.74-1.68-3.74-3.74V4.24c0-2.06,1.68-3.74,3.74-3.74h18.53c2.06,0,3.74,1.68,3.74,3.74
				v18.52c0,2.06-1.68,3.74-3.74,3.74H4.24z"/>
			<path class="st1" d="M22.76,1C24.55,1,26,2.45,26,4.24v18.53c0,1.79-1.45,3.24-3.24,3.24H4.24C2.45,26,1,24.55,1,22.76V4.24
				C1,2.45,2.45,1,4.24,1H22.76 M22.76,0H4.24C1.9,0,0,1.9,0,4.24v18.53C0,25.1,1.9,27,4.24,27h18.53C25.1,27,27,25.1,27,22.76V4.24
				C27,1.9,25.1,0,22.76,0L22.76,0z"/>
		</g>
	</g>
	<polygon class="st3" points="20.86,8.31 18.74,6.19 13.5,11.43 8.26,6.19 6.14,8.31 11.38,13.55 6.14,18.79 8.26,20.91 13.5,15.67 
		18.74,20.91 20.86,18.79 15.62,13.55 	"/>
</g>
<g>
	<g>
		<g>
			<path class="st4" d="M4.24,87.92c-2.06,0-3.74-1.68-3.74-3.74V65.65c0-2.06,1.68-3.74,3.74-3.74h18.53
				c2.06,0,3.74,1.68,3.74,3.74v18.52c0,2.06-1.68,3.74-3.74,3.74H4.24z"/>
			<path class="st1" d="M22.76,62.42c1.79,0,3.24,1.45,3.24,3.24v18.53c0,1.79-1.45,3.24-3.24,3.24H4.24C2.45,87.42,1,85.96,1,84.18
				V65.65c0-1.79,1.45-3.24,3.24-3.24H22.76 M22.76,61.42H4.24C1.9,61.42,0,63.31,0,65.65v18.53c0,2.34,1.9,4.24,4.24,4.24h18.53
				c2.34,0,4.24-1.9,4.24-4.24V65.65C27,63.31,25.1,61.42,22.76,61.42L22.76,61.42z"/>
		</g>
	</g>
	<polygon class="st3" points="22.41,73.46 15,73.46 15,66.05 12,66.05 12,73.46 4.59,73.46 4.59,76.46 12,76.46 12,83.87 15,83.87 
		15,76.46 22.41,76.46 	"/>
</g>
<g class="st5">
	
		<rect x="6.84" y="41.72" transform="matrix(0.7071 -0.7071 0.7071 0.7071 -26.4144 22.6606)" class="st6" width="14.62" height="3"/>
	<polygon class="st6" points="9.49,49.99 7.37,47.87 4.27,52.51 4.85,53.09 4.85,53.09 4.85,53.1 21.83,53.1 21.83,52.1 6.34,52.1 	
		"/>
	<path class="st6" d="M21.86,36.32l-0.82-0.82c-0.36-0.36-0.94-0.36-1.3,0l-1.03,1.03l2.12,2.12l1.03-1.03
		C22.22,37.26,22.22,36.68,21.86,36.32z"/>
</g>
</svg>
