<?xml version="1.0" encoding="utf-8"?>
<!-- Generator: Adobe Illustrator 24.1.0, SVG Export Plug-In . SVG Version: 6.00 Build 0)  -->
<svg version="1.1" id="Layer_1" xmlns="http://www.w3.org/2000/svg" xmlns:xlink="http://www.w3.org/1999/xlink" x="0px" y="0px"
	 viewBox="0 0 27 27" style="enable-background:new 0 0 27 27;" xml:space="preserve">
<style type="text/css">
	.st0{fill:#9EC4D5;}
	.st1{fill:#29ABE2;}
	.st2{fill:#A07278;}
	.st3{opacity:0.75;fill:#FFFFFF;}
	.st4{fill:#62C491;}
	.st5{opacity:0.75;}
	.st6{fill:#FFFFFF;}
</style>
<g>
	<g>
		<path class="st0" d="M4.24,26.5c-2.06,0-3.74-1.68-3.74-3.74V4.24c0-2.06,1.68-3.74,3.74-3.74h18.53c2.06,0,3.74,1.68,3.74,3.74
			v18.52c0,2.06-1.68,3.74-3.74,3.74H4.24z"/>
		<path class="st1" d="M22.76,1C24.55,1,26,2.45,26,4.24v18.53c0,1.79-1.45,3.24-3.24,3.24H4.24C2.45,26,1,24.55,1,22.76V4.24
			C1,2.45,2.45,1,4.24,1H22.76 M22.76,0H4.24C1.9,0,0,1.9,0,4.24v18.53C0,25.1,1.9,27,4.24,27h18.53C25.1,27,27,25.1,27,22.76V4.24
			C27,1.9,25.1,0,22.76,0L22.76,0z"/>
	</g>
</g>
<g>
	<g>
		<g>
			<path class="st2" d="M4.24-4.21c-2.06,0-3.74-1.68-3.74-3.74v-18.52c0-2.06,1.68-3.74,3.74-3.74h18.53
				c2.06,0,3.74,1.68,3.74,3.74v18.52c0,2.06-1.68,3.74-3.74,3.74H4.24z"/>
			<path class="st1" d="M22.76-29.71c1.79,0,3.24,1.45,3.24,3.24v18.53c0,1.79-1.45,3.24-3.24,3.24H4.24C2.45-4.71,1-6.16,1-7.95
				v-18.53c0-1.79,1.45-3.24,3.24-3.24H22.76 M22.76-30.71H4.24C1.9-30.71,0-28.81,0-26.47v18.53c0,2.34,1.9,4.24,4.24,4.24h18.53
				c2.34,0,4.24-1.9,4.24-4.24v-18.53C27-28.81,25.1-30.71,22.76-30.71L22.76-30.71z"/>
		</g>
	</g>
	<polygon class="st3" points="20.86,-22.4 18.74,-24.52 13.5,-19.28 8.26,-24.52 6.14,-22.4 11.38,-17.16 6.14,-11.92 8.26,-9.8 
		13.5,-15.04 18.74,-9.8 20.86,-11.92 15.62,-17.16 	"/>
</g>
<g>
	<g>
		<g>
			<path class="st4" d="M4.24,57.21c-2.06,0-3.74-1.68-3.74-3.74V34.95c0-2.06,1.68-3.74,3.74-3.74h18.53
				c2.06,0,3.74,1.68,3.74,3.74v18.52c0,2.06-1.68,3.74-3.74,3.74H4.24z"/>
			<path class="st1" d="M22.76,31.71c1.79,0,3.24,1.45,3.24,3.24v18.53c0,1.79-1.45,3.24-3.24,3.24H4.24C2.45,56.71,1,55.26,1,53.47
				V34.95c0-1.79,1.45-3.24,3.24-3.24H22.76 M22.76,30.71H4.24C1.9,30.71,0,32.61,0,34.95v18.53c0,2.34,1.9,4.24,4.24,4.24h18.53
				c2.34,0,4.24-1.9,4.24-4.24V34.95C27,32.61,25.1,30.71,22.76,30.71L22.76,30.71z"/>
		</g>
	</g>
	<polygon class="st3" points="22.41,42.75 15,42.75 15,35.34 12,35.34 12,42.75 4.59,42.75 4.59,45.75 12,45.75 12,53.16 15,53.16 
		15,45.75 22.41,45.75 	"/>
</g>
<g class="st5">
	
		<rect x="6.84" y="11.01" transform="matrix(0.7071 -0.7071 0.7071 0.7071 -4.7006 13.6664)" class="st6" width="14.62" height="3"/>
	<polygon class="st6" points="9.49,19.28 7.37,17.16 4.27,21.81 4.85,22.39 4.85,22.38 4.85,22.39 21.83,22.39 21.83,21.39 
		6.34,21.39 	"/>
	<path class="st6" d="M21.86,5.62l-0.82-0.82c-0.36-0.36-0.94-0.36-1.3,0l-1.03,1.03l2.12,2.12l1.03-1.03
		C22.22,6.56,22.22,5.97,21.86,5.62z"/>
</g>
</svg>
