<svg height='100px' width='100px'  fill="#000000" xmlns="http://www.w3.org/2000/svg" xmlns:xlink="http://www.w3.org/1999/xlink" xml:space="preserve" version="1.1" style="shape-rendering:geometricPrecision;text-rendering:geometricPrecision;image-rendering:optimizeQuality;" viewBox="0 0 504.74 504.74" x="0px" y="0px" fill-rule="evenodd" clip-rule="evenodd"><defs><style type="text/css">
   
    .fil0 {fill:#000000;fill-rule:nonzero}
   
  </style></defs><g><path class="fil0" d="M117.88 160.28l257.56 257.56 10.15 -10.14 -257.56 -257.57 -10.15 10.15zm329.78 307.55c5.36,-7.89 12.07,-14.6 20.17,-20.17l-23.56 -70.36 -66.97 66.97 70.36 23.56zm45.92 36.46c-42.86,-14.37 -87.2,-29.21 -136.4,-45.68 -2.61,-0.87 -4.66,-2.15 -6.6,-4.09l-340.23 -340.23c-13.79,-13.79 -13.79,-36.26 0,-50.05l53.89 -53.89c13.79,-13.79 36.26,-13.79 50.05,0l340.23 340.23c1.94,1.94 3.22,3.99 4.09,6.6 16.47,49.2 31.31,93.54 45.68,136.4 2.2,6.59 -4.11,12.91 -10.71,10.71zm-415.2 -479.8l-53.89 53.89c-5.98,5.99 -5.98,15.79 0,21.77l62.62 62.62 75.66 -75.66 -62.62 -62.62c-5.98,-5.98 -15.78,-5.98 -21.77,0zm22.87 152.42l257.56 257.56 10.65 -10.65 -257.56 -257.56 -10.65 10.65zm333.22 181.91l-257.56 -257.56 -10.65 10.65 257.56 257.56 10.65 -10.65zm-16.63 16.63l-257.56 -257.56 -10.15 10.15 257.57 257.56 10.14 -10.15zm-16.13 16.13l-257.56 -257.56 -10.14 10.14 257.56 257.56 10.14 -10.14z"></path></g></svg>